<svg width="136" height="34" viewBox="0 0 136 34" fill="none" xmlns="http://www.w3.org/2000/svg">
<path d="M13.536 0.743998C15.504 0.743998 17.224 0.959998 18.696 1.392C20.168 1.824 21.352 2.28 22.248 2.76C23.144 3.24 23.688 3.56 23.88 3.72L20.424 9.504C20.168 9.312 19.728 9.032 19.104 8.664C18.496 8.296 17.768 7.968 16.92 7.68C16.088 7.392 15.216 7.248 14.304 7.248C13.072 7.248 12.072 7.472 11.304 7.92C10.552 8.352 10.176 9 10.176 9.864C10.176 10.456 10.376 10.992 10.776 11.472C11.192 11.936 11.816 12.384 12.648 12.816C13.496 13.232 14.568 13.688 15.864 14.184C17.048 14.616 18.16 15.128 19.2 15.72C20.24 16.312 21.152 17.016 21.936 17.832C22.736 18.632 23.368 19.56 23.832 20.616C24.296 21.672 24.528 22.872 24.528 24.216C24.528 25.816 24.2 27.208 23.544 28.392C22.888 29.56 21.992 30.528 20.856 31.296C19.736 32.064 18.456 32.632 17.016 33C15.592 33.384 14.112 33.576 12.576 33.576C10.4 33.576 8.448 33.328 6.72 32.832C5.008 32.336 3.624 31.8 2.568 31.224C1.512 30.648 0.88 30.264 0.672 30.072L4.248 24.048C4.44 24.192 4.808 24.424 5.352 24.744C5.912 25.064 6.592 25.4 7.392 25.752C8.192 26.088 9.04 26.376 9.936 26.616C10.848 26.856 11.744 26.976 12.624 26.976C14.096 26.976 15.2 26.696 15.936 26.136C16.672 25.56 17.04 24.808 17.04 23.88C17.04 23.192 16.808 22.576 16.344 22.032C15.88 21.488 15.184 20.976 14.256 20.496C13.328 20 12.168 19.48 10.776 18.936C9.384 18.376 8.08 17.696 6.864 16.896C5.664 16.096 4.688 15.096 3.936 13.896C3.184 12.696 2.808 11.208 2.808 9.432C2.808 7.656 3.304 6.12 4.296 4.824C5.304 3.512 6.624 2.504 8.256 1.8C9.904 1.096 11.664 0.743998 13.536 0.743998ZM28.8514 1.32H49.0834V7.608H36.0034V14.064H48.9634V20.16H36.0034V26.712H49.0834V33H28.8514V1.32ZM54.348 1.32H67.26C69.1 1.32 70.74 1.704 72.18 2.472C73.62 3.24 74.756 4.352 75.588 5.808C76.436 7.248 76.86 8.968 76.86 10.968C76.86 12.968 76.5 14.608 75.78 15.888C75.076 17.152 74.228 18.104 73.236 18.744C72.244 19.368 71.324 19.744 70.476 19.872L78.18 33H70.116L63.252 20.424H61.524V33H54.348V1.32ZM61.524 15.456H64.692C65.972 15.456 67.092 15.144 68.052 14.52C69.012 13.896 69.492 12.792 69.492 11.208C69.492 9.624 69.02 8.528 68.076 7.92C67.132 7.296 66.02 6.984 64.74 6.984H61.524V15.456ZM100.466 33H92.3543L81.0743 1.32H89.1623L96.4103 23.856L103.658 1.32H111.746L100.466 33ZM128.681 20.016V26.928H122.753V20.016H115.841V14.136H122.753V7.224H128.681V14.136H135.545V20.016H128.681Z" fill="black"/>
</svg>
